<svg width="36" height="36" viewBox="0 0 36 36" fill="none" xmlns="http://www.w3.org/2000/svg">
<path d="M12.2504 18C12.2504 14.8244 14.8247 12.25 18.0003 12.25C21.176 12.25 23.7503 14.8244 23.7503 18C23.7503 21.1756 21.176 23.75 18.0003 23.75C14.8247 23.75 12.2504 21.1756 12.2504 18ZM18.0003 14.75C16.2055 14.75 14.7503 16.205 14.7503 18C14.7503 19.795 16.2055 21.25 18.0003 21.25C19.7953 21.25 21.2503 19.795 21.2503 18C21.2503 16.205 19.7953 14.75 18.0003 14.75Z" fill="#FEB635" stroke="black" stroke-width="0.5"/>
<path d="M8.98787 6.96912L9.06766 6.73219L8.98787 6.96912C10.6505 7.52906 12.3722 6.51192 12.6842 4.93279L12.439 4.88433L12.6842 4.93279L12.8028 4.33254C13.1902 2.37228 14.9424 1 16.93 1H19.0704C21.0582 1 22.8104 2.37237 23.1978 4.3327L23.3163 4.93269C23.6282 6.51186 25.3501 7.52906 27.0126 6.96914L27.6081 6.76859C29.4887 6.13526 31.5899 6.87676 32.6083 8.58689L33.6785 10.3839C34.7055 12.1085 34.316 14.2932 32.7811 15.5797L32.3042 15.9793L32.4648 16.1709L32.3042 15.9793C31.0265 17.05 31.0265 18.95 32.3042 20.0207L32.4648 19.8291L32.3042 20.0207L32.7811 20.4203C32.7811 20.4203 32.7811 20.4203 32.7811 20.4203C34.316 21.7068 34.7055 23.8916 33.6785 25.6161L32.6084 27.413C31.5899 29.1232 29.4886 29.8647 27.608 29.2313C27.608 29.2313 27.608 29.2313 27.6079 29.2313L27.0128 29.0308L27.0127 29.0308C25.3501 28.4708 23.6282 29.4881 23.3163 31.0673L23.5615 31.1157L23.3163 31.0673L23.1978 31.6672C22.8104 33.6277 21.0582 35 19.0704 35H16.93C14.9424 35 13.1902 33.6276 12.8028 31.6674L12.6842 31.0671C12.3722 29.4879 10.6504 28.4708 8.98779 29.0308L8.98775 29.0308L8.39267 29.2313C8.39266 29.2313 8.39264 29.2313 8.39263 29.2313C6.51204 29.8647 4.41074 29.1232 3.39229 27.413L2.32218 25.616L2.10738 25.7439L2.32218 25.616C1.29518 23.8914 1.68456 21.7068 3.21949 20.4203L3.69629 20.0207L3.69631 20.0207C4.97389 18.9498 4.97389 17.0502 3.69631 15.9793L3.69629 15.9793L3.21949 15.5797C1.68456 14.2932 1.29518 12.1085 2.32218 10.3839L3.39234 8.58691C4.41076 6.87676 6.51202 6.13528 8.39258 6.76863L8.98787 6.96912ZM20.7452 4.81723L20.7452 4.81721C20.5996 4.08047 19.9184 3.5 19.0704 3.5H16.93C16.0822 3.5 15.401 4.08044 15.2554 4.81715C15.2554 4.81715 15.2554 4.81716 15.2554 4.81716L15.1368 5.4174L15.1368 5.41742C14.5173 8.55256 11.2089 10.3551 8.18993 9.33836L7.59465 9.13787C6.79715 8.86927 5.93843 9.19752 5.54031 9.86607L4.47015 11.6631C4.08044 12.3175 4.21585 13.1528 4.82538 13.6637L5.30218 14.0633C7.77191 16.1333 7.77192 19.8667 5.30219 21.9367L4.82539 22.3363L4.82536 22.3363C4.21586 22.8473 4.08043 23.6825 4.47015 24.3369L5.54027 26.1339C5.93839 26.8024 6.79711 27.1307 7.59463 26.8621C7.59464 26.8621 7.59465 26.8621 7.59465 26.8621L8.18976 26.6617L8.18978 26.6617C11.2088 25.6447 14.5173 27.4473 15.1368 30.5825L15.1368 30.5825L15.2554 31.1828C15.2554 31.1828 15.2554 31.1828 15.2554 31.1828C15.401 31.9196 16.0822 32.5 16.93 32.5H19.0704C19.9184 32.5 20.5996 31.9195 20.7452 31.1828L20.7452 31.1827L20.8637 30.5827C21.483 27.4474 24.7915 25.6447 27.8106 26.6615L28.4059 26.8621C29.2035 27.1307 30.0623 26.8024 30.4603 26.1339C30.4603 26.1339 30.4604 26.1339 30.4604 26.1339L31.5304 24.337L31.5305 24.337C31.9202 23.6825 31.7847 22.8473 31.1752 22.3363L31.1752 22.3363L30.6985 21.9368C30.6985 21.9368 30.6985 21.9368 30.6985 21.9368C28.2286 19.8668 28.2286 16.1331 30.6985 14.0632L30.6985 14.0632L31.1752 13.6636C31.1752 13.6636 31.1752 13.6636 31.1752 13.6636C31.7847 13.1528 31.9202 12.3175 31.5305 11.663L30.4604 9.86606C30.0623 9.19749 29.2035 8.86926 28.406 9.13783L27.8105 9.33837L27.8903 9.5753L27.8105 9.33837C24.7915 10.3551 21.483 8.55245 20.8637 5.41725L20.7452 4.81723Z" fill="#FEB635" stroke="black" stroke-width="0.5"/>
</svg>
